Coordinates
version=1
nRows=6
nColumns=107
inDegrees=yes

Units are S.I. units (second, meters, Newtons, ...)
If the header above contains a line with 'inDegrees', this indicates whether rotational values are in degrees (yes) or radians (no).

endheader
time	sternoclavicular_r2	sternoclavicular_r3	unrotscap_r3	unrotscap_r2	acromioclavicular_r2	acromioclavicular_r3	acromioclavicular_r1	unrothum_r1	unrothum_r3	unrothum_r2	elv_angle	shoulder_elv	shoulder1_r2	shoulder_rot	elbow_flexion	pro_sup	deviation	flexion	proximal_distal_r1	proximal_distal_r3	cmc_flexion	cmc_abduction	mp_flexion	ip_flexion	mcp2_flexion	mcp2_abduction	pm2_flexion	md2_flexion	mcp3_flexion	mcp3_abduction	pm3_flexion	md3_flexion	mcp4_flexion	mcp4_abduction	pm4_flexion	md4_flexion	mcp5_flexion	mcp5_abduction	pm5_flexion	md5_flexion	bicpt_tx	bicpt_ty	bicpt_tz	bicpt2_tx	bicpt2_ty	bicpt2_tz	ptpt_tx	ptpt_ty	ptpt_tz	FCUpt_tx	FCUpt_ty	FCUpt_tz	EDCpt_tx	EDCpt_ty	EDCpt_tz	APLpt_tx	APLpt_ty	APLpt_tz	FPLpt_tx	FPLpt_ty	FPLpt_tz	FPLpt2_tx	FPLpt2_ty	FPLpt2_tz	PEC1pt2_tx	PEC1pt2_ty	PEC1pt2_tz	PEC1pt3_tx	PEC1pt3_ty	PEC1pt3_tz	PEC2pt2_tx	PEC2pt2_ty	PEC2pt2_tz	PEC2pt3_tx	PEC2pt3_ty	PEC2pt3_tz	PEC3pt2_tx	PEC3pt2_ty	PEC3pt2_tz	PEC3pt3_tx	PEC3pt3_ty	PEC3pt3_tz	DELT2pt2a_tx	DELT2pt2a_ty	DELT2pt2a_tz	DELT2pt2_tx	DELT2pt2_ty	DELT2pt2_tz	LAT1pt2_tx	LAT1pt2_ty	LAT1pt2_tz	LAT1pt3_tx	LAT1pt3_ty	LAT1pt3_tz	LAT2pt2_tx	LAT2pt2_ty	LAT2pt2_tz	LAT2pt3_tx	LAT2pt3_ty	LAT2pt3_tz	LAT3pt2_tx	LAT3pt2_ty	LAT3pt2_tz	LAT3pt3_tx	LAT3pt3_ty	LAT3pt3_tz
      0.46666667	     -0.32381937	      0.13715460	     -0.13715460	      0.32381937	     -0.06556683	      0.52988810	      0.23818105	     -0.23818105	     -0.52988810	      0.06556683	     98.70013944	     76.66711351	     -1.72264241	    -21.19083277	     29.06424028	     30.19998946	      0.19627006	     -0.39189163	      0.23483563	     -0.19594582	      2.11270889	     -0.58113039	    -19.69859500	    -26.09301119	    -21.64442099	     13.69812426	      9.75265593	    -25.49045309	     40.85411468	     11.22912383	     80.82732331	     52.98840925	     39.36993628	      0.15194277	     79.59409267	     38.11750829	     -2.12962257	    -14.23797500	    -16.81703339	      4.99507299	      0.00086135	     -0.03093121	     -0.00483657	      0.01644624	     -0.01809544	     -0.00844887	      0.00531856	     -0.06634289	     -0.00248277	      0.00680841	     -0.18368529	     -0.00028069	     -0.00362399	      0.00099641	      0.00019075	      0.00027235	      0.00010894	      0.00054469	      0.00034860	      0.00104581	      0.00058827	      0.00003773	     -0.00005035	     -0.00006042	      0.00251298	      0.00881673	      0.00613337	     -0.00822043	      0.01984828	     -0.01882605	      0.00251298	      0.00881673	      0.00613337	      0.00055371	      0.01840012	     -0.00966858	      0.00396683	      0.00490287	      0.01601363	      0.00000000	      0.00786154	      0.00000000	     -0.00719820	     -0.03326504	     -0.00648266	      0.01445399	     -0.00046879	     -0.00372262	     -0.00089445	      0.01499269	     -0.00613337	      0.00247039	      0.02163718	     -0.01788901	     -0.00600560	      0.01299083	     -0.00549448	     -0.01252231	      0.02742981	     -0.03070946	     -0.02351127	      0.01452417	     -0.00736857	     -0.01558899	      0.03168910	     -0.03837618
      0.50000000	     -0.32371137	      0.13710886	     -0.13710886	      0.32371137	     -0.06554497	      0.52971137	      0.23810161	     -0.23810161	     -0.52971137	      0.06554497	     98.75147982	     76.64154350	     -1.72353846	    -21.36568782	     29.03143709	     30.82809544	      0.19739141	     -0.39010864	      0.23599670	     -0.19505432	      2.00525784	     -0.73694435	    -18.81295800	    -26.39503463	    -22.19121252	     13.69325848	     12.08419750	    -27.54449429	     41.14250842	     11.31382187	     80.77619999	     54.99202619	     39.96989843	      0.27631318	     79.18237498	     38.83497863	     -1.18963432	    -14.25617544	    -17.15588157	      4.96796281	      0.00086027	     -0.03092745	     -0.00483596	      0.01646106	     -0.01808653	     -0.00839018	      0.00527215	     -0.06637289	     -0.00253337	      0.00686980	     -0.18367392	     -0.00028964	     -0.00369936	      0.00102012	      0.00018947	      0.00027169	      0.00010868	      0.00054339	      0.00034777	      0.00104330	      0.00058686	      0.00003681	     -0.00004790	     -0.00005749	      0.00251214	      0.00881378	      0.00613133	     -0.00821768	      0.01984166	     -0.01881977	      0.00251214	      0.00881378	      0.00613133	      0.00055352	      0.01839399	     -0.00966536	      0.00396586	      0.00490123	      0.01601130	      0.00000000	      0.00785625	      0.00000000	     -0.00719580	     -0.03325394	     -0.00647827	      0.01455214	     -0.00047424	     -0.00378652	     -0.00089415	      0.01498769	     -0.00613133	      0.00246956	      0.02162996	     -0.01788304	     -0.00600359	      0.01298649	     -0.00549265	     -0.01251813	      0.02742066	     -0.03069922	     -0.02350343	      0.01451933	     -0.00736611	     -0.01558379	      0.03167853	     -0.03836338
      0.53333333	     -0.32365233	      0.13708385	     -0.13708385	      0.32365233	     -0.06553301	      0.52961476	      0.23805819	     -0.23805819	     -0.52961476	      0.06553301	     98.75432856	     76.62756626	     -1.72358818	    -21.36172785	     29.03114518	     30.82856004	      0.19737396	     -0.39008683	      0.23597809	     -0.19504342	      2.00501458	     -0.73665359	    -18.81347912	    -26.39498943	    -22.19012005	     13.69346921	     12.08326386	    -27.54375356	     41.14394989	     11.31414971	     80.77613709	     54.99131199	     39.97039641	      0.27621030	     79.18280102	     38.83474992	     -1.19076777	    -14.25625480	    -17.15626312	      4.96787976	      0.00086026	     -0.03092741	     -0.00483596	      0.01646106	     -0.01808645	     -0.00839013	      0.00527212	     -0.06637292	     -0.00253341	      0.00686985	     -0.18367391	     -0.00028964	     -0.00369942	      0.00102014	      0.00018947	      0.00027168	      0.00010867	      0.00054336	      0.00034775	      0.00104325	      0.00058683	      0.00003676	     -0.00004789	     -0.00005747	      0.00251168	      0.00881218	      0.00613021	     -0.00821618	      0.01983804	     -0.01881634	      0.00251168	      0.00881218	      0.00613021	      0.00055342	      0.01839063	     -0.00966360	      0.00396534	      0.00490034	      0.01601001	      0.00000000	      0.00785338	      0.00000000	     -0.00719448	     -0.03324788	     -0.00647588	      0.01454964	     -0.00047412	     -0.00378539	     -0.00089399	      0.01498496	     -0.00613021	      0.00246911	      0.02162602	     -0.01787978	     -0.00600250	      0.01298413	     -0.00549165	     -0.01251585	      0.02741566	     -0.03069362	     -0.02349914	      0.01451668	     -0.00736477	     -0.01558095	      0.03167275	     -0.03835639
      0.56666667	     -0.32326403	      0.13691938	     -0.13691938	      0.32326403	     -0.06545439	      0.52897935	      0.23777258	     -0.23777258	     -0.52897935	      0.06545439	     98.81951998	     76.53563157	     -1.72472599	    -21.71116516	     29.00814692	     30.13803637	      0.18107884	     -0.41611064	      0.21891101	     -0.20805532	      1.91047493	     -0.46291458	    -20.94141280	    -23.80311525	    -21.18693034	     13.74175082	      8.17622091	    -20.28461689	     41.29391828	     11.13235502	     82.03966471	     49.74527643	     39.30649719	     -0.25348611	     81.78002454	     35.17974912	     -2.77637179	    -14.25368247	    -16.61901498	      4.95579833	      0.00085950	     -0.03092478	     -0.00483553	      0.01644473	     -0.01808021	     -0.00845463	      0.00532314	     -0.06633993	     -0.00247778	      0.00680236	     -0.18368641	     -0.00027979	     -0.00361656	      0.00099408	      0.00019086	      0.00028074	      0.00011229	      0.00056147	      0.00035934	      0.00107803	      0.00060639	      0.00003591	     -0.00004573	     -0.00005488	      0.00250867	      0.00880161	      0.00612286	     -0.00820633	      0.01981424	     -0.01879377	      0.00250867	      0.00880161	      0.00612286	      0.00055276	      0.01836857	     -0.00965200	      0.00396187	      0.00489446	      0.01600160	      0.00000000	      0.00783441	      0.00000000	     -0.00718585	     -0.03320799	     -0.00646014	      0.01474411	     -0.00048506	     -0.00391503	     -0.00089292	      0.01496698	     -0.00612286	      0.00246615	      0.02160007	     -0.01785833	     -0.00599530	      0.01296855	     -0.00548506	     -0.01250083	      0.02738277	     -0.03065680	     -0.02347095	      0.01449926	     -0.00735593	     -0.01556226	      0.03163475	     -0.03831037
      0.60000000	     -0.32438857	      0.13739569	     -0.13739569	      0.32438857	     -0.06568209	      0.53081953	      0.23859972	     -0.23859972	     -0.53081953	      0.06568209	     98.54195839	     76.80187811	     -1.71988163	    -20.49276088	     29.15004530	     29.70985007	      0.19690429	     -0.38038794	      0.23549256	     -0.19019397	      1.17133302	     -1.07043476	    -18.48859328	    -25.33527342	    -22.48975870	     13.73948909	      9.72886380	    -22.39713955	     41.49888321	     11.30016122	     82.84128505	     51.44651342	     39.61109017	      0.07768844	     81.37675154	     38.69935081	     -2.59716126	    -14.24788432	    -16.92525597	      4.95970267	      0.00086419	     -0.03094104	     -0.00483815	      0.01643406	     -0.01811875	     -0.00849429	      0.00535478	     -0.06631947	     -0.00244329	      0.00676058	     -0.18369409	     -0.00027350	     -0.00356517	      0.00097799	      0.00019160	      0.00026802	      0.00010721	      0.00053603	      0.00034306	      0.00102919	      0.00057892	      0.00002663	     -0.00002853	     -0.00003423	      0.00251740	      0.00883222	      0.00614416	     -0.00823487	      0.01988317	     -0.01885914	      0.00251740	      0.00883222	      0.00614416	      0.00055468	      0.01843247	     -0.00968558	      0.00397190	      0.00491149	      0.01602592	      0.00000000	      0.00788940	      0.00000000	     -0.00721085	     -0.03332351	     -0.00650578	      0.01405899	     -0.00044712	     -0.00347114	     -0.00089602	      0.01501905	     -0.00614416	      0.00247473	      0.02167522	     -0.01792045	     -0.00601615	      0.01301366	     -0.00550414	     -0.01254432	      0.02747803	     -0.03076344	     -0.02355260	      0.01454970	     -0.00738152	     -0.01561640	      0.03174480	     -0.03844364
      0.63333333	     -0.32436449	      0.13738549	     -0.13738549	      0.32436449	     -0.06567721	      0.53078012	      0.23858201	     -0.23858201	     -0.53078012	      0.06567721	     98.55915761	     76.79617592	     -1.72018181	    -20.48615398	     29.16404601	     29.71003309	      0.19686856	     -0.38037429	      0.23545528	     -0.19018714	      1.17062048	     -1.07046078	    -18.48949115	    -25.33547790	    -22.49066343	     13.73978078	      9.72807199	    -22.39719356	     41.50197047	     11.30037552	     82.84181726	     51.44655695	     39.61336548	      0.07809411	     81.37812223	     38.69925980	     -2.59423013	    -14.24751975	    -16.92395674	      4.95982863	      0.00086466	     -0.03094265	     -0.00483841	      0.01643407	     -0.01812256	     -0.00849427	      0.00535476	     -0.06631948	     -0.00244330	      0.00676060	     -0.18369409	     -0.00027350	     -0.00356520	      0.00097800	      0.00019160	      0.00026801	      0.00010720	      0.00053602	      0.00034305	      0.00102916	      0.00057890	      0.00002658	     -0.00002850	     -0.00003421	      0.00251721	      0.00883157	      0.00614370	     -0.00823426	      0.01988169	     -0.01885774	      0.00251721	      0.00883157	      0.00614370	      0.00055464	      0.01843110	     -0.00968486	      0.00397169	      0.00491112	      0.01602540	      0.00000000	      0.00788822	      0.00000000	     -0.00721031	     -0.03332104	     -0.00650480	      0.01405521	     -0.00044691	     -0.00346881	     -0.00089596	      0.01501793	     -0.00614370	      0.00247455	      0.02167361	     -0.01791912	     -0.00601571	      0.01301270	     -0.00550373	     -0.01254339	      0.02747599	     -0.03076116	     -0.02355085	      0.01454862	     -0.00738097	     -0.01561524	      0.03174245	     -0.03844078
